<?xml version="1.0" standalone="no"?>
<!DOCTYPE svg PUBLIC "-//W3C//DTD SVG 1.1//EN" "http://www.w3.org/Graphics/SVG/1.1/DTD/svg11.dtd" >
<svg xmlns="http://www.w3.org/2000/svg" xmlns:xlink="http://www.w3.org/1999/xlink" version="1.1">
<metadata>
Created by FontForge 20161003 at Thu Mar 28 00:44:25 2019
 By www-data
</metadata>
<defs>
<font id="ArdoraarrowsRegular" horiz-adv-x="1031" >
  <font-face 
    font-family="ArdoraarrowsRegular"
    font-weight="400"
    font-stretch="normal"
    units-per-em="1024"
    panose-1="2 11 6 3 5 3 2 2 2 4"
    ascent="819"
    descent="-205"
    x-height="760"
    cap-height="844"
    bbox="57 1 1011 984"
    underline-thickness="0"
    underline-position="0"
    unicode-range="U+0020-00A0"
  />
<missing-glyph horiz-adv-x="1024" 
d="M68 493l629 491v-369h280v-245h-280v-369z" />
    <glyph glyph-name=".notdef" horiz-adv-x="1024" 
d="M68 493l629 491v-369h280v-245h-280v-369z" />
    <glyph glyph-name="glyph1" horiz-adv-x="0" 
 />
    <glyph glyph-name="glyph2" horiz-adv-x="341" 
 />
    <glyph glyph-name="glyph3" horiz-adv-x="0" 
 />
    <glyph glyph-name="space" unicode=" " horiz-adv-x="36" 
 />
    <glyph glyph-name="uni00A0" unicode="&#xa0;" horiz-adv-x="1024" 
 />
    <glyph glyph-name="I" unicode="I" horiz-adv-x="1030" 
d="M525 844l456 -584h-190v-259h-534v259h-189z" />
    <glyph glyph-name="J" unicode="J" horiz-adv-x="1030" 
d="M525 1l-457 583h189v260h534v-260h190z" />
    <glyph glyph-name="L" unicode="L" horiz-adv-x="953" 
d="M908 1h-209l-358 578v-578h-199v843h260l307 -483v483h199v-843z" />
    <glyph glyph-name="A" unicode="A" horiz-adv-x="1025" 
d="M68 423l629 421v-316h280v-211h-280v-316z" />
    <glyph glyph-name="B" unicode="B" horiz-adv-x="1030" 
d="M525 844l456 -584h-343v-259h-228v259h-342z" />
    <glyph glyph-name="C" unicode="C" 
d="M982 423l-633 -422v316h-281v211h281v316z" />
    <glyph glyph-name="D" unicode="D" horiz-adv-x="1030" 
d="M525 10l-457 577h342v257h228v-257h343z" />
    <glyph glyph-name="E" unicode="E" horiz-adv-x="1030" 
d="M68 1l336 440l-305 403h232l197 -271l193 271h230l-305 -409l335 -434h-239l-217 291l-219 -291h-238z" />
    <glyph glyph-name="F" unicode="F" 
d="M753 788h-685v56h685v-56zM982 641h-914v56h914v-56zM428 494h-360v56h360v-56zM831 347h-763v55h756zM982 200h-914v55h914v-55zM982 53h-914v55h914v-55z" />
    <glyph glyph-name="K" unicode="K" 
d="M982 330q0 -54 -84 -91q-71 -31 -149 -31q-62 0 -107 16q-60 21 -60 62q0 50 90 82q73 26 147 26q50 0 94 -13v262l-460 -154v-363q0 -54 -83 -91q-75 -34 -147 -34q-60 0 -106 17q-60 19 -60 61q0 50 89 82q70 26 147 26q50 0 91 -12v468l598 201v-514z" />
    <glyph glyph-name="G" unicode="G" 
d="M68 1l264 714l128 -336l116 130l406 -508h-914zM852 844q30 0 52 -31t22 -74t-22 -73.5t-52 -30.5t-51.5 30.5t-21.5 73.5t21.5 74t51.5 31z" />
    <glyph glyph-name="one" unicode="1" 
d="M97 844h857q28 0 28 -29v-786q0 -28 -28 -28h-857q-29 0 -29 28v786q0 29 29 29zM758 90v113h-133v535h-144q-2 -26 -13 -43q-11 -18 -34 -28q-18 -9 -48 -13q-26 -4 -60 -4v-106h137v-341h-137v-113h432z" />
    <glyph glyph-name="three" unicode="3" 
d="M97 844h857q28 0 28 -29v-786q0 -28 -28 -28h-857q-29 0 -29 28v786q0 29 29 29zM755 395q-21 17 -43 26q-27 8 -45 11v6q51 10 84 52q33 40 33 92q0 39 -17 69q-17 29 -51 50q-28 16 -73 27q-43 10 -104 10t-119 -12q-62 -15 -93 -27v-135h15q43 25 90 39q46 14 85 14
q14 0 38 -3q23 -4 38 -10t24 -18q10 -12 10 -30q0 -27 -10 -39q-11 -15 -27 -21q-19 -8 -43 -9q-16 -2 -57 -2h-36v-112h35h25h28q31 -2 49 -8q21 -6 33 -21q13 -15 13 -42q0 -29 -10 -43q-7 -13 -24 -25q-20 -14 -48 -18q-15 -2 -28 -3t-25 -1q-39 0 -91 16q-49 16 -86 38
h-17v-137q36 -16 91 -27q55 -12 132 -12q71 0 116 14q49 14 82 40q35 26 54 65q17 40 17 83q0 38 -12 62q-12 22 -33 41z" />
    <glyph glyph-name="two" unicode="2" 
d="M97 844h857q28 0 28 -29v-786q0 -28 -28 -28h-857q-29 0 -29 28v786q0 29 29 29zM811 90v120h-283l22 16.5l34 25.5q18 15 37.5 31t39.5 34q60 56 91 111q30 54 30 113q0 91 -62 140q-62 50 -181 50q-61 0 -117 -13q-55 -13 -88 -26v-140h13q40 26 80 41q46 16 82 16
q52 0 79 -24q28 -24 28 -65q0 -38 -22 -73q-17 -31 -72 -87q-18 -17 -40.5 -37t-50.5 -42q-57 -47 -114 -87v-104h494z" />
    <glyph glyph-name="four" unicode="4" 
d="M97 844h857q28 0 28 -29v-786q0 -28 -28 -28h-857q-29 0 -29 28v786q0 29 29 29zM824 240v119h-88v379h-170l-303 -375v-123h313v-151h160v151h88zM576 359h-188l188 233v-233z" />
    <glyph glyph-name="five" unicode="5" 
d="M97 844h857q28 0 28 -29v-786q0 -28 -28 -28h-857q-29 0 -29 28v786q0 29 29 29zM806 319q0 57 -21 96q-22 37 -61 62q-30 17 -71 28q-39 10 -93 10h-17h-18q-28 -2 -34 -2v103h297v121h-450v-357h19q12 3 27.5 6.5t33.5 6.5q34 6 73 6q29 0 59 -4q32 -5 55 -18
q17 -12 26 -26q10 -19 10 -38q0 -28 -8 -42q-8 -15 -22 -27q-20 -18 -49 -22q-30 -7 -58 -7q-46 0 -89 16q-45 14 -83 38h-18v-140q27 -13 85 -26q52 -12 129 -12q65 0 116 15q51 16 90 48q34 30 54 73q18 42 18 92z" />
    <glyph glyph-name="six" unicode="6" 
d="M97 844h857q28 0 28 -29v-786q0 -28 -28 -28h-857q-29 0 -29 28v786q0 29 29 29zM808 315q0 65 -21 103q-22 41 -55 65q-27 19 -59 27q-30 9 -67 9q-42 0 -78 -12q-33 -12 -67 -31q8 69 54 109q44 40 125 40q32 0 61 -8q27 -6 39 -12h16v123q-6 0 -18 2t-30 4
q-40 5 -67 5q-91 0 -156 -26q-67 -28 -107 -73q-41 -49 -61 -113q-19 -62 -19 -146q0 -78 20 -136q21 -58 58 -93q35 -33 80 -47q46 -15 102 -15q61 0 105 16q42 16 78 47q32 29 50 72q17 43 17 90zM618 221q-14 -14 -29 -19q-17 -6 -31 -6q-18 0 -33 6q-19 6 -28 19
q-18 17 -28 51q-10 36 -10 85v13v11q1 7 1 14q21 7 37 10q21 5 38 5q18 0 42 -5q21 -5 36 -16q15 -13 24 -31q9 -20 9 -50q0 -33 -8 -53q-7 -18 -20 -34z" />
    <glyph glyph-name="seven" unicode="7" 
d="M97 844h857q28 0 28 -29v-786q0 -28 -28 -28h-857q-29 0 -29 28v786q0 29 29 29zM823 609v130h-509v-125h333l-304 -524h186z" />
    <glyph glyph-name="eight" unicode="8" 
d="M97 844h857q28 0 28 -29v-786q0 -28 -28 -28h-857q-29 0 -29 28v786q0 29 29 29zM808 277q0 56 -31 98q-33 43 -97 67v3q57 24 84 58q28 33 28 79q0 70 -65 114q-66 42 -180 42q-112 0 -178 -46q-69 -48 -69 -122q0 -49 26 -87q24 -38 79 -63v-3q-68 -28 -94 -63
q-27 -35 -27 -83q0 -38 15 -71q15 -35 47 -57q31 -26 81 -39q49 -15 118 -15q122 0 192 53q71 51 71 135zM635 564q0 -30 -8 -44q-9 -20 -27 -40q-24 6 -49 16q-11 3 -18.5 6t-13.5 6q-29 12 -45 27q-15 13 -15 39q0 13 8 26q9 12 21 18q12 7 28 11q14 4 31 4q40 0 64 -19
q24 -18 24 -50zM649 270q0 -23 -10 -35q-8 -12 -24 -23q-12 -8 -31 -12q-24 -4 -31 -4q-49 0 -81 26q-31 25 -31 69q0 28 15 52q12 21 32 39q27 -9 44 -16q30 -11 40 -15q47 -20 61 -35q16 -18 16 -46z" />
    <glyph glyph-name="nine" unicode="9" 
d="M97 844h857q28 0 28 -29v-786q0 -28 -28 -28h-857q-29 0 -29 28v786q0 29 29 29zM802 449q0 80 -19 135q-20 56 -58 92q-32 32 -77 47q-43 15 -104 15q-115 0 -182 -62q-70 -65 -70 -164q0 -62 21 -102q18 -38 55 -65q28 -19 58 -26q33 -9 68 -9q44 0 77 11q26 8 68 32
q-7 -40 -21 -68q-17 -29 -41 -47q-24 -19 -54 -26q-28 -8 -64 -8q-42 0 -63 7q-23 5 -37 12h-16v-123q12 -4 47 -6q32 -4 67 -4q89 0 154 25q65 24 110 75q41 46 61 113q20 69 20 146zM641 473v-15.5v-10.5q0 -5 -0.5 -8t-0.5 -5q-11 -6 -34 -10q-25 -5 -41 -5q-23 0 -43 5
q-22 4 -35 16q-15 10 -24 31q-9 19 -9 49q0 29 8 52q9 23 21 35q14 14 29 20q20 6 31 6q13 0 33 -6q16 -7 29 -20q16 -18 27 -51q9 -33 9 -83z" />
    <glyph glyph-name="Q" unicode="Q" 
d="M525 672q189 0 323 -71.5t134 -171.5q0 -102 -134 -173t-323 -71t-323 71t-134 173q0 100 134 171.5t323 71.5zM525 629q-156 0 -266 -59t-110 -141q0 -84 110 -142.5t266 -58.5t266 58.5t110 142.5q0 82 -110 141t-266 59zM518 577q57 0 98 -40.5t41 -97.5
q0 -58 -41 -98.5t-98 -40.5t-98 40.5t-41 98.5q0 57 41 97.5t98 40.5zM446 557q10 8 18 -3.5t8 -24.5q0 -30 -30 -30q-13 0 -25.5 10.5t-4.5 19.5l6 6l9 9l12 9q1 1 7 4z" />
    <glyph glyph-name="S" unicode="S" 
d="M932 595l-18 -11l-5 8l17 12zM907 574l-14 -35l-22 -17l-7 11l23 19l7 34zM904 500l-8 -8l-6 31l4 -1zM916 362l-45 15l-2 25l43 -16zM981 228l-16 -30l-8 1l-2 17l20 33l-8 19l4 10l8 -17zM858 405l-8 -23l-8 2l8 26zM842 410l-9 -26l-16 6l1 20l14 22zM982 666l-30 -5
l1 -17l-18 -36l-4 33l10 20l-35 -5l-20 -17l-3 -13l15 5l1 -32l-10 -1l-3 -16l-20 -19l3 -14l-13 -13l-4 23l-9 -7l2 -45l-37 -33l10 -22l-16 -15l-7 20l-3 -2l3 -21l13 -14l-4 -7l-9 4l2 -10l8 -2l5 -19l19 -12l1 -10l-23 6l-32 54l14 -2l-19 61v17h-5l-3 -15l-18 -21v-21
l-14 -6l-9 38l-6 3l1 22l-52 15l8 -22l9 5l10 -15l-10 -18l-23 -13l-24 70h-7v-14l16 -50l12 -13l18 2l-33 -74l4 -8l1 -25l-10 -11l-1 -18l-26 -48l-21 1l-18 76l5 12v21l-15 27l7 7l-16 15l-30 2l-17 23l-1 51l39 51l22 3l5 -9l-1 -9l17 -8l9 12l6 -9l24 -1l4 6v21l-9 -21
l-13 27l2 -27l-12 14l-2 20l-15 25l-2 -3l11 -25l-7 -17l-4 20l-13 14l-7 -10l-4 4l-25 -35l-9 37l17 -2l4 12l-7 10l11 13l7 2l11 17l-3 13l7 4l4 -10l22 2l1 10l24 13l-5 8l-15 -8l-4 15l11 13l-7 10l-14 -27l5 -7l-1 -17l-14 -6l-3 13l-15 -3l1 20l25 51l27 10l41 -15
l-7 -17l-16 2l10 -17l32 32h21l-15 24l17 26l23 15l3 -12l-22 -11l-12 -21l25 -23l-4 12l15 20l27 -10l4 13l50 28l33 -11l-25 -22l78 -12l13 20l6 -18l37 -5l11 -8l30 5v-63zM928 294l-19 -53l-15 2l-29 33l-1 -8l-36 -12l4 23l-7 5v28l46 47l22 -22l1 18l7 2zM545 630
l-1 -14h-16l5 14l-9 16l7 11l4 -16zM515 692l-20 -22l-11 27l21 8zM576 548l-7 4l5 10zM510 814l-12 -17l-3 -42l-19 -46l-32 -15l-7 -28l-14 1l-17 38l-6 52l-13 15l-14 -7l-8 15l24 45l98 19zM526 624l-6 -11l-8 9l6 17zM670 348l-10 -47l-14 15l5 21l14 17zM362 495l-9 7
v11zM393 464l-5 -4l-28 15l2 8zM355 488l-2 -10l-17 5l2 13zM457 373l-8 -16l-3 -30l-66 -108q3 -11 2 -21l-9 -14l8 -15l-6 -11l-18 30v48l2.5 23.5t8.5 71.5l-14 9l-15 59l6 14v17h-15l-6 20l-9 -1l-31 26l-10 18h-11l-33 66l1 33l-11 25l-8 -3l-5 17l7 -1l-17 26l-21 5
l-53 -40l19 28l-13 15l-6 56l22 17l104 -17l-19 22l4 28l105 61l40 -3l-36 -61l48 -60l-16 -24l-28 7l4 27h-10l-4 -18l3 -16l-22 3l-11 -24l8 -9l15 -7l14 -25l5 25l-3 5v25l34 -9l27 -50l-38 -33v-18l-7 2l-6 -10l1 -14l-15 -19l4 -22h-7l-7 15h-24l-9 -25l9 -13h5l8 8
l6 -5l-3 -18l9 -1l2 -21h16l15 10l11 -6l20 -1l1 -20h17l2 -24h11zM120 689l-33 1l-7 -4l8 -13l-18 -7v63l45 -27zM166 478l-5 -12l-15 16l-10 -8l-23 21l2 10l27 -17l11 8zM105 517l-12 -12l-7 21zM228 302l-7 -10l-9 10l6 10zM210 317l-7 -6l-10 10l8 14zM700 571l-1 13
h-6l1 -14zM680 550l-7 21l6 13l-3 5l-6 -7l1 -36zM646 572l-7 20l-8 1l1 -9h-7l-5 11l-10 -19l2 -11l8 10h7l5 -1t14 -2zM68 168h210v-167h-210v167zM90 144v-124h168v124h-168zM105 123h111v-14h-111v14zM105 86h131v-14h-131v14zM105 49h86v-14h-86v14z" />
    <glyph glyph-name="T" unicode="T" 
d="M68 844h43v-799h-43v799zM68 1v44h914v-44h-914zM150 67h-18v42l204 396l131 -189l497 338v-55l-500 -336l-121 170zM830 608h66l-19 -15h-47v15zM728 608h78v-15h-78v15zM626 608h78v-15h-78v15zM524 608h78v-15h-78v15zM894 474v78h14v-78h-14zM422 608h78v-15h-78v15z
M894 372v79h14v-79h-14zM320 608h78v-15h-78v15zM894 270v78h14v-78h-14zM218 608h78v-15h-78v15zM894 168v79h14v-79h-14zM116 608h78v-15h-78v15zM894 66v79h14v-79h-14z" />
    <glyph glyph-name="U" unicode="U" 
d="M68 1q18 90 28 185t46 174h362h363l33 -20l82 -339h-914zM518 844q92 0 157 -65.5t65 -157.5q0 -93 -65 -157.5t-157 -64.5q-93 0 -158 64.5t-65 157.5q0 92 65 157.5t158 65.5zM240 71v-70h27v70h-27zM804 71v-70h26v70h-26z" />
    <glyph glyph-name="V" unicode="V" 
d="M512 1l-272 251h-172v339h172l272 251v-841zM943 760q0 -14 -17 -23q-36 -17 -71.5 -34t-70.5 -34q-118 -55 -134 -55q-33 0 -33 27q0 15 17 23q70 32 142 68q118 56 134 56q33 0 33 -28zM982 448q0 -26 -33 -26h-299q-33 0 -33 26q0 27 33 27h299q33 0 33 -27zM943 132
q0 -27 -33 -27q-20 0 -134 56q-36 17 -71.5 33.5t-70.5 34.5q-17 7 -17 23q0 27 33 27q14 0 134 -56q35 -18 70.5 -35t71.5 -33q17 -8 17 -23z" />
    <glyph glyph-name="O" unicode="O" 
d="M68 1l4 649q0 35 11 59t35 24h21q16 0 24 8q7 8 10 29l4 23q6 36 16 43q8 8 43 8h145q30 0 40 -8q9 -8 15 -39q3 -13 5 -31t11 -27q6 -6 31 -6h261q27 0 36 -15q10 -15 10 -56v-53h150q40 0 42 -22q0 -6 -13 -46l-166 -540h-735zM741 609h22l-2 11q-8 41 -7 15t-13 -26z
M272 619l-2 5q-4 6 -11.5 5.5t-13.5 0.5q16 -5 27 -11zM241 631v0l-53 25l1 -4v0l-4 -6l-10 16l13 -6l5 -13q1 -2 16 -5t32 -7zM281 600zM125 50h633l174 508v0v0v0.5v0.5q-4 -2 -3 -2t3 1v0v0v0.5v0.5v0h-2.5h-2.5l-605 5q-21 0 -28 -6q-4 -4 0 -4t1 -12z" />
    <glyph glyph-name="P" unicode="P" 
d="M68 61l160 258l643 525q106 -39 111 -175l-646 -524zM820 769v0l36 30q62 -32 77 -136l-35 -28v0q-9 51 -28 81q-21 33 -50 53zM283 334q12 2 13 2q18 -2 18 -20l-1 -5l515 418q-8 6 -13.5 14.5t-12.5 12.5zM325 291q21 -6 21 -31l508 415q-8 21 -18 33zM358 240
q9 -2 12 -6q4 -4 4 -12q0 -9 -7 -21l490 402q16 28 21.5 55t-60.5 -33zM155 159l84 139q22 20 45 20q5 0 8 -3t3 -9q-2 -21 -31 -49q31 17 44 17q9 0 14 -5q5 -7 5 -15q-2 -19 -29 -48q32 17 45 17q7 0 10 -3q3 -4 2 -9q0 -15 -32 -45l-143 -45z" />
    <glyph glyph-name="W" unicode="W" 
d="M68 354v142l329 348v-152l-261 -268l261 -271v-152zM982 354l-328 -353v152l260 271l-260 268v152l328 -348v-142z" />
    <glyph glyph-name="M" unicode="M" 
d="M68 844h914v-843h-914v843zM525 778q-118 0 -201.5 -104t-83.5 -251q0 -148 83.5 -252t201.5 -104q117 0 201 104t84 252q0 147 -84 251t-201 104zM375 201v442l384 -220z" />
    <glyph glyph-name="R" unicode="R" 
d="M279 844h477v-214h-477v214zM68 164h364v-163h-364v163zM618 311h364v-163h-364v163zM463 630h-19l-215 -466h33zM594 630l191 -319h33l-205 319h-19z" />
    <glyph glyph-name="X" unicode="X" 
d="M322 50h293v-49h-293v49zM68 844h914v-592h-914v592zM659 51h-382l192 191zM142 774v-452h766v452h-766zM239 708q54 0 54 -54t-54 -54t-54 54t54 54zM239 527q54 0 54 -55q0 -54 -54 -54t-54 54q0 55 54 55zM308 672h565v-37h-565v37zM308 491h565v-37h-565v37z" />
    <glyph glyph-name="N" unicode="N" horiz-adv-x="1030" 
d="M527 667l135 121q54 48 132.5 48t132.5 -48v0q54 -49 54 -118.5t-54 -117.5l-135 -120q-54 -49 -130 -48t-130 49h-2l0.5 1l0.5 1l-4 -3q4 3 0.5 4t-4.5 4v0v0v0.5v1.5q-5 4 -11.5 8t-10.5 10q-35 48 -28.5 106.5t54.5 100.5zM123 286l135 121q54 48 132.5 48t133.5 -48
v0q54 -49 54 -118.5t-54 -117.5l-136 -121q-55 -48 -133 -48t-132 48v0q-55 48 -55 117.5t55 118.5zM594 648q-36 -33 -36 -78.5t36 -77.5v0q36 -33 87.5 -33t88.5 33l90 79q36 32 36 78t-36 79v0q-37 32 -88.5 32t-87.5 -32zM190 266q-36 -32 -36 -78t36 -78v0
q36 -33 88 -33t88 33l90 80q34 30 36.5 73.5t-30.5 76.5h-3q-3 3 -2 3l-5 2q-1 0 -7 4q-3 2 -9 5q-8 4 -13.5 8.5t-12.5 7.5q-76 24 -130 -24zM389 360l14 14l63 -37l67 60l-7 8l-18 14l-33 19l26 23l53 -46l66 59l-29 22l-21 27l11 9l6 6q7 6 20.5 13t19.5 1l21 -24
q15 -16 -5 -32l-208 -186q-7 -7 -22 7l-22 20q-14 11 -2 23z" />
    <glyph glyph-name="t" unicode="t" horiz-adv-x="953" 
d="M908 681h-270v-680h-223v680h-270v163h763v-163z" />
    <glyph glyph-name="u" unicode="u" horiz-adv-x="953" 
d="M908 681h-270v-680h-223v680h-270v163h763v-163zM908 424h-93v-92h-48v92h-92v46h92v92h48v-92h93v-46z" />
    <glyph glyph-name="a" unicode="a" 
d="M957 223q25 -43 25 -89q0 -56 -34 -94q-35 -39 -85 -39h-675q-50 0 -86 39q-34 38 -34 94q0 46 25 89l312 542q44 79 120 79q75 0 120 -79zM842 241l-231 395q-55 95 -86 95q-32 0 -87 -95l-230 -395q-40 -70 -40 -105q0 -50 91 -50h532q91 0 91 50q0 35 -40 105z
M586 603q0 -34 -24 -137q-23 -108 -23 -187h-27q0 75 -23 190t-23 134q0 28 17 50q15 22 42 22q25 0 43 -22q18 -21 18 -50zM583 177q0 -24 -17 -41t-41 -17q-23 0 -41 17q-17 17 -17 41q0 23 18 41q15 17 41 17q24 0 40 -17q17 -19 17 -41z" />
    <glyph glyph-name="c" unicode="c" horiz-adv-x="953" 
d="M142 1v13v14q5 -15 11.5 -17t15.5 -10h-14h-13zM169 1q-9 8 -15.5 10t-11.5 17v277v277q13 27 43 23.5t34 5.5q13 113 102.5 165t191.5 60h7h8q103 -9 188.5 -62t103.5 -164q14 -14 44 -4.5t42 -21.5q0 -138 1 -276t1 -276v-1.5v-0.5q-8 -8 -10.5 -15.5t-15.5 -11.5
l-0.5 -1l-0.5 -1h-357h-355zM881 1h13h14v14.5v14.5q-8 -8 -10.5 -15.5t-15.5 -11.5l-0.5 -1zM906 584l0.5 -0.5t1.5 -0.5v-275.5v-275.5q0 138 -1 276t-1 276zM450 51h74h75h-74.5h-74.5zM599 51l0.5 0.5t0.5 1.5q-10 75 -25 158.5t-15 158.5q51 34 53.5 76.5t-22.5 72.5
t-66 36t-78 -33q-31 -45 -19.5 -88t59.5 -67q9 -50 -12 -149.5t-26 -165.5q0 -1 0.5 -1h0.5h74h75zM279 607h90.5t164.5 0.5t157.5 1t70.5 1.5q-9 63 -58.5 102t-105.5 56q-89 18 -175 -6t-133 -108q-3 -7 -10 -24t-1 -23z" />
    <glyph glyph-name="g" unicode="g" horiz-adv-x="951" 
d="M904 739l2 -40q-117 -87 -263 -273q-144 -185 -219 -345l-34 -40q-20 -24 -43.5 -27.5t-32.5 -12.5q-9 29 -31 85l-16 36q-36 81 -61 114q-29 37 -64 49q60 63 109 63q42 0 95 -115l16 -39q92 157 239 305q72 74 153 137t150 103z" />
    <glyph glyph-name="d" unicode="d" horiz-adv-x="951" 
d="M333 517v-147l-191 184l191 185v-148h267q126 0 217 -86q89 -88 89 -209q0 -123 -90 -208q-90 -87 -216 -87h-42v74h42q95 0 162 65q67 64 67 156t-67 157q-66 64 -162 64h-267z" />
    <glyph glyph-name="b" unicode="b" horiz-adv-x="950" 
d="M180 642q-5 3 -11 7q-27 15 -27 39v66q0 34 40 49q107 41 341 41q233 0 343 -41q39 -15 39 -49v-66q0 -24 -27 -39q-6 -4 -11 -7v-519q0 -57 -37 -74q-102 -48 -307 -48q-204 0 -306 48q-37 18 -37 74v519zM524 703q144 0 242 16q101 16 101 40q0 20 -109 40
q-108 18 -235 18q-130 0 -235 -19q-108 -18 -108 -40q0 -23 102 -39q98 -16 242 -16zM180 723v-16q0 -90 343 -90q344 0 344 90v16q-67 -24 -151 -35q-43 -6 -91.5 -9t-101.5 -3t-101 3t-90 9q-83 11 -152 35zM219 627v-502q0 -50 44 -64q93 -33 260 -33q168 0 261 33
q44 14 44 64v502q-13 -3 -27.5 -7t-29.5 -7v-456l-38 -18v467q-55 -8 -114 -11v-456h-39v456q-23 -1 -37.5 -1.5t-19.5 -0.5t-19 0.5t-38 1.5v-456l-38 -1v457q-60 3 -114 11v-467l-38 18v456q-16 3 -30.5 7t-26.5 7zM524 775q45 0 45 -8t-45 -8q-46 0 -46 8t46 8z" />
    <glyph glyph-name="r" unicode="r" horiz-adv-x="1061" 
d="M147 847h864v-708h-828l-6 25l-8 13l-6 -38h-16v708zM184 824l-1 -584l-3 -7v-16l3 -78h658l-9 22h142v663h-790zM141 1q9 43 13.5 82.5t12.5 84.5q3 21 9 -4t7 -22q2 8 -1 43t-3 41q0 17 7.5 32.5t14.5 30.5h290.5h290.5l27 -16l66 -272h-734zM502 677q74 0 126 -52.5
t52 -125.5q0 -75 -52 -127t-126 -52t-126 52t-52 127q0 73 52 125.5t126 52.5zM279 58v-57h22v57h-22zM732 58v-57h21v57h-21z" />
    <glyph glyph-name="x" unicode="x" horiz-adv-x="981" 
d="M147 760h788v-759h-788v759zM168 646v-621h745v621h-745zM690 177v-85h-317q6 49 32 91q25 42 101 113q60 56 75 77q19 30 19 56q0 30 -17 46q-16 17 -44 17t-45 -17q-18 -19 -20 -57l-90 9q7 75 51 107q40 32 106 32q70 0 110 -37q39 -38 39 -94q0 -34 -11 -60
q-14 -33 -36 -61q-16 -20 -59 -60q-40 -36 -54 -52q-12 -13 -19 -25h179zM170 730v-70h69v70h-69zM840 730v-70h69v70h-69z" />
    <glyph glyph-name="s" unicode="s" horiz-adv-x="982" 
d="M936 1h-866v759h866v-759zM898 35v706h-792v-706h792zM868 539h-181v157h181v-157zM591 380h-429v42h429v-42zM506 287h-344v42h344v-42zM427 192l-265 -1v44l265 -1v-42z" />
    <glyph glyph-name="f" unicode="f" horiz-adv-x="981" 
d="M75 633l95 -92l93 91l-95 93q20 5 35 5q52 0 88 -36t36 -86q0 -16 -5 -34l123 -120l176 166l86 -83l-169 -174l116 -114q24 4 36 4q51 0 87 -36q36 -34 36 -85q0 -16 -5 -34l-95 92l-93 -91l95 -93q-20 -5 -35 -5q-52 0 -88 35q-35 36 -35 87q0 16 5 36l-114 112
l-262 -267l-108 106l273 256l-120 118q-24 -6 -38 -6q-50 0 -87 36q-36 34 -36 85q0 15 5 34zM710 707l16 16l86 -84l-17 -16zM426 740q35 46 73 46h75q45 0 82 -37l186 -182l22 22l71 -70l-120 -117l-70 70l19 19l-187 183q-16 15 -31 35.5t-39 20.5q-17 0 -41.5 8t-39.5 2
z" />
    <glyph glyph-name="l" unicode="l" horiz-adv-x="980" 
d="M362 834l168 -60l-284 -773l-169 61zM531 822h179v-821h-179v821zM755 822h179v-821h-179v821zM377 788l108 -39l-76 -208l-109 39zM563 782v-223h116v223h-116zM785 770v-210h116v210h-116z" />
    <glyph glyph-name="m" unicode="m" horiz-adv-x="1061" 
d="M70 1v679q0 73 61 73h28q19 0 31 8q8 8 13 31l5 23q9 37 21 45q9 8 57 8h191q39 0 50 -8q12 -9 19 -39l6 -25q7 -31 15 -37q9 -6 42 -6h342q33 0 47 -15q13 -16 13 -57v-680h-941zM94 32l893 -4v652q0 44 -37 44h-816q-40 0 -40 -44v-648zM727 345v123h-125v85h125v124
h83v-124h125v-85h-125v-123h-83z" />
    <glyph glyph-name="n" unicode="n" horiz-adv-x="1061" 
d="M70 1v679q0 73 61 73h28q19 0 31 8q8 8 13 31l5 23q9 37 21 45q9 8 57 8h191q39 0 50 -8q12 -9 19 -39l6 -25q7 -31 15 -37q9 -6 42 -6h342q33 0 47 -15q13 -16 13 -57v-680h-941zM94 32l893 -4v652q0 44 -37 44h-816q-40 0 -40 -44v-648zM594 494v98h304v-98h-304z" />
    <glyph glyph-name="Z" unicode="Z" horiz-adv-x="1061" 
d="M866 124l133 -123h-332v307l132 -123q118 106 118 250q0 142 -110 245q-111 102 -265 102q-156 0 -264 -102q-110 -102 -110 -245q0 -138 110 -245l-67 -62q-137 135 -137 307q0 179 137 307q138 126 331 126q194 0 332 -126q137 -128 137 -307t-145 -311z" />
    <glyph glyph-name="i" unicode="i" horiz-adv-x="1045" 
d="M176 202h745q30 0 52.5 -22.5t22.5 -52.5v0q0 -32 -22.5 -54t-52.5 -22h-745q-32 0 -53.5 22t-21.5 54v0q0 30 21.5 52.5t53.5 22.5zM176 513h745q30 0 52.5 -22.5t22.5 -52.5v0q0 -32 -22.5 -54t-52.5 -22h-745q-32 0 -53.5 22t-21.5 54v0q0 30 21.5 52.5t53.5 22.5z
M176 824h745q30 0 52.5 -22.5t22.5 -52.5v0q0 -32 -22.5 -54t-52.5 -22h-745q-32 0 -53.5 22t-21.5 54v0q0 30 21.5 52.5t53.5 22.5z" />
    <glyph glyph-name="H" unicode="H" horiz-adv-x="1061" 
d="M1011 868v-53v-243h-87v187h-244l-1 109h281h51zM334 521h429v-161h-429v161zM70 868h51h281l-1 -109h-244v-186h-87v242v53zM70 5v53v243h87v-187h244l1 -109h-281h-51zM1011 5h-51h-281l1 110l244 -1v187h87v-243v-53z" />
    <glyph glyph-name="k" unicode="k" horiz-adv-x="1029" 
d="M612 138h-145v386h145v-386zM629 658q0 -35 -26 -59q-27 -24 -63 -24q-38 0 -63 24q-26 24 -26 59q0 33 26 59q25 24 63 24q36 0 63 -24q26 -26 26 -59zM877 435q0 137 -97 234t-234 97q-136 0 -234 -97q-97 -99 -97 -234q0 -137 97 -235q97 -96 234 -96q138 0 234 96
q97 97 97 235zM980 435q0 -180 -127 -307t-307 -127q-181 0 -306 127q-128 128 -128 307t128 306q125 127 306 127q180 0 307 -127q127 -126 127 -306z" />
    <glyph glyph-name="h" unicode="h" horiz-adv-x="1053" 
d="M354 319l38 -7l17 13l-6 12l-7 15l-5 12l-5 15l-5 15l-5 15l-3 16l-5 15l-1 8l-1 9l1 5l-1 9l-1 8l-2 8l2 9l-1 8l1 8l-1 8l1 8l-1 9l1 7l1 6l2 10l1 9l1 7l2 8l1 11l2 8l4 10l1 8l3 8l4 7l2 11l4 7l3 8l3 7l4 8l4 7l3 8l4 8l6 7l4 7l3 8l6 7l4 7l5 4l6 8l4 7l6 4l6 7
l11 12l12 11l14 9l11 11l14 9l13 8l7 4l6 1l7 4l9 4l5 5l8 1l8 4l7 1l8 1l8 4l7 2h8l7 2l8 1l7 1l8 2l7 1l10 -2l7 1l8 1l7 -1l10 -2l7 2l10 -3l7 -1l7 -1l9 -2l7 -2l10 -1l6 -4l7 -2l10 -2l7 -4l6 -4l8 -1l8 -5l7 -4l7 -4l7 -4l6 -4l7 -4l7 -4l6 -7l7 -4l6 -4l7 -7l6 -4
l4 -6l7 -7l6 -7l4 -3l7 -7l10 -13l10 -13l7 -15l10 -13l8 -15l7 -15l4 -9l1 -6l4 -9l3 -9l1 -6l4 -9l3 -9l2 -8l1 -9l4 -8v-9l2 -8l1 -9l1 -8l1 -9l1 -8l1 -8l-1 -11v-8l2 -9l-2 -8l-1 -10l1 -9l-2 -10l-1 -9l-1 -7l-2 -11l-1 -8l-2 -11l-4 -7l-1 -8l-2 -11l-3 -7l-4 -8
l-1 -8l-4 -10l-4 -8l-3 -7l-4 -8l-3 -7l-4 -8l-4 -7l-6 -7l-3 -8l-4 -7l-6 -8l-6 -4l-3 -7l-6 -7l-6 -5l-3 -7l-6 -7l-12 -12l-11 -9l-14 -10l-11 -9l-14 -11l-14 -8l-7 -2l-6 -4l-8 -4l-7 -4l-6 -2l-8 -4l-7 -1l-8 -4l-8 -1l-7 -1l-8 -4l-8 -1l-7 -2l-8 -1l-7 -1l-8 -2
l-9 3l-8 -2l-7 -1l-7 1l-10 -1l-7 2l-8 1h-10l-7 1l-9 2l-7 1l-7 2l-7 4l-7 1l-7 2l-7 1l-7 4l-7 2l-7 3l-4 4l-7 2l-7 4l-6 3l-7 5l-7 4l-4 4l-13 7l-11 11l-11 8l-11 10l-10 10l-10 13l-9 10l-8 13l-16 -13l-7 -46l-284 -221l-61 95l284 223v0zM643 262l12 -2l12 -3l10 1
h12l10 1h12l10 1l10 4l11 3l10 4l10 3l11 6l8 4l11 6l8 7l8 7l9 6l8 7l9 9l8 6l7 10l6 10l6 9l7 10l6 10l4 10l5 13l4 10l4 13l4 10l2 14l3 13l1 10l2 13v14v12l-1 14l-1 10v11l-3 12l-4 11l-3 12l-3 12l-3 11l-5 12l-6 10l-6 9l-5 12l-6 9l-6 7l-9 10l-5 9l-9 7l-9 8l-8 7
l-9 7l-9 7l-9 5l-11 5l-9 4l-12 5l-9 5l-12 2l-11 3l-10 2l-12 2l-12 -1h-10h-12l-10 -1l-10 -1l-10 -4l-13 -3l-10 -3l-8 -4l-11 -3l-10 -7l-9 -6l-7 -4l-11 -6l-9 -9l-8 -7l-6 -7l-9 -9l-6 -10l-7 -10l-6 -9l-7 -10l-6 -10l-4 -10l-6 -10l-5 -12l-2 -11l-4 -13l-2 -13
l-2 -11l-2 -12l-2 -14l1 -11l-2 -13v-12l3 -14l1 -11l3 -11l3 -12l3 -12l3 -11l3 -12l6 -9l3 -12l6 -9l6 -10l8 -10l6 -9l5 -9l9 -7l8 -10l6 -7l9 -7l11 -8l9 -7l9 -5l9 -4l11 -5l9 -5l12 -5l12 -2l9 -2v0zM706 347h-58v137h-135v57h135v136h58v-136h136v-57h-136v-137z" />
    <glyph glyph-name="j" unicode="j" horiz-adv-x="1053" 
d="M643 262l12 -2l12 -3l10 1h12l10 1h12l10 1l10 4l11 3l10 4l10 3l11 6l8 4l11 6l8 7l8 7l9 6l8 7l9 9l8 6l7 10l6 10l6 9l7 10l6 10l4 10l5 13l4 10l4 13l4 10l2 14l3 13l1 10l2 13v14v12l-1 14l-1 10v11l-3 12l-4 11l-3 12l-3 12l-3 11l-5 12l-6 10l-6 9l-5 12l-6 9
l-6 7l-9 10l-5 9l-9 7l-9 8l-8 7l-9 7l-9 7l-9 5l-11 5l-9 4l-12 5l-9 5l-12 2l-11 3l-10 2l-12 2l-12 -1h-10h-12l-10 -1l-10 -1l-10 -4l-13 -3l-10 -3l-8 -4l-11 -3l-10 -7l-9 -6l-7 -4l-11 -6l-9 -9l-8 -7l-6 -7l-9 -9l-6 -10l-7 -10l-6 -9l-7 -10l-6 -10l-4 -10l-6 -10
l-5 -12l-2 -11l-4 -13l-2 -13l-2 -11l-2 -12l-2 -14l1 -11l-2 -13v-12l3 -14l1 -11l3 -11l3 -12l3 -12l3 -11l3 -12l6 -9l3 -12l6 -9l6 -10l8 -10l6 -9l5 -9l9 -7l8 -10l6 -7l9 -7l11 -8l9 -7l9 -5l9 -4l11 -5l9 -5l12 -5l12 -2l9 -2v0zM354 319l38 -7l17 13l-6 12l-7 15
l-5 12l-5 15l-5 15l-5 15l-3 16l-5 15l-1 8l-1 9l1 5l-1 9l-1 8l-2 8l2 9l-1 8l1 8l-1 8l1 8l-1 9l1 7l1 6l2 10l1 9l1 7l2 8l1 11l2 8l4 10l1 8l3 8l4 7l2 11l4 7l3 8l3 7l4 8l4 7l3 8l4 8l6 7l4 7l3 8l6 7l4 7l5 4l6 8l4 7l6 4l6 7l11 12l12 11l14 9l11 11l14 9l13 8l7 4
l6 1l7 4l9 4l5 5l8 1l8 4l7 1l8 1l8 4l7 2h8l7 2l8 1l7 1l8 2l7 1l10 -2l7 1l8 1l7 -1l10 -2l7 2l10 -3l7 -1l7 -1l9 -2l7 -2l10 -1l6 -4l7 -2l10 -2l7 -4l6 -4l8 -1l8 -5l7 -4l7 -4l7 -4l6 -4l7 -4l7 -4l6 -7l7 -4l6 -4l7 -7l6 -4l4 -6l7 -7l6 -7l4 -3l7 -7l10 -13l10 -13
l7 -15l10 -13l8 -15l7 -15l4 -9l1 -6l4 -9l3 -9l1 -6l4 -9l3 -9l2 -8l1 -9l4 -8v-9l2 -8l1 -9l1 -8l1 -9l1 -8l1 -8l-1 -11v-8l2 -9l-2 -8l-1 -10l1 -9l-2 -10l-1 -9l-1 -7l-2 -11l-1 -8l-2 -11l-4 -7l-1 -8l-2 -11l-3 -7l-4 -8l-1 -8l-4 -10l-4 -8l-3 -7l-4 -8l-3 -7l-4 -8
l-4 -7l-6 -7l-3 -8l-4 -7l-6 -8l-6 -4l-3 -7l-6 -7l-6 -5l-3 -7l-6 -7l-12 -12l-11 -9l-14 -10l-11 -9l-14 -11l-14 -8l-7 -2l-6 -4l-8 -4l-7 -4l-6 -2l-8 -4l-7 -1l-8 -4l-8 -1l-7 -1l-8 -4l-8 -1l-7 -2l-8 -1l-7 -1l-8 -2l-9 3l-8 -2l-7 -1l-7 1l-10 -1l-7 2l-8 1h-10
l-7 1l-9 2l-7 1l-7 2l-7 4l-7 1l-7 2l-7 1l-7 4l-7 2l-7 3l-4 4l-7 2l-7 4l-6 3l-7 5l-7 4l-4 4l-13 7l-11 11l-11 8l-11 10l-10 10l-10 13l-9 10l-8 13l-16 -13l-7 -46l-284 -221l-61 95l284 223v0zM513 541h329v-57h-329v57z" />
    <glyph glyph-name="Y" unicode="Y" horiz-adv-x="1053" 
d="M354 319l38 -7l17 13l-6 12l-7 15l-5 12l-5 15l-5 15l-5 15l-3 16l-5 15l-1 8l-1 9l1 5l-1 9l-1 8l-2 8l2 9l-1 8l1 8l-1 8l1 8l-1 9l1 7l1 6l2 10l1 9l1 7l2 8l1 11l2 8l4 10l1 8l3 8l4 7l2 11l4 7l3 8l3 7l4 8l4 7l3 8l4 8l6 7l4 7l3 8l6 7l4 7l5 4l6 8l4 7l6 4l6 7
l11 12l12 11l14 9l11 11l14 9l13 8l7 4l6 1l7 4l9 4l5 5l8 1l8 4l7 1l8 1l8 4l7 2h8l7 2l8 1l7 1l8 2l7 1l10 -2l7 1l8 1l7 -1l10 -2l7 2l10 -3l7 -1l7 -1l9 -2l7 -2l10 -1l6 -4l7 -2l10 -2l7 -4l6 -4l8 -1l8 -5l7 -4l7 -4l7 -4l6 -4l7 -4l7 -4l6 -7l7 -4l6 -4l7 -7l6 -4
l4 -6l7 -7l6 -7l4 -3l7 -7l10 -13l10 -13l7 -15l10 -13l8 -15l7 -15l4 -9l1 -6l4 -9l3 -9l1 -6l4 -9l3 -9l2 -8l1 -9l4 -8v-9l2 -8l1 -9l1 -8l1 -9l1 -8l1 -8l-1 -11v-8l2 -9l-2 -8l-1 -10l1 -9l-2 -10l-1 -9l-1 -7l-2 -11l-1 -8l-2 -11l-4 -7l-1 -8l-2 -11l-3 -7l-4 -8
l-1 -8l-4 -10l-4 -8l-3 -7l-4 -8l-3 -7l-4 -8l-4 -7l-6 -7l-3 -8l-4 -7l-6 -8l-6 -4l-3 -7l-6 -7l-6 -5l-3 -7l-6 -7l-12 -12l-11 -9l-14 -10l-11 -9l-14 -11l-14 -8l-7 -2l-6 -4l-8 -4l-7 -4l-6 -2l-8 -4l-7 -1l-8 -4l-8 -1l-7 -1l-8 -4l-8 -1l-7 -2l-8 -1l-7 -1l-8 -2
l-9 3l-8 -2l-7 -1l-7 1l-10 -1l-7 2l-8 1h-10l-7 1l-9 2l-7 1l-7 2l-7 4l-7 1l-7 2l-7 1l-7 4l-7 2l-7 3l-4 4l-7 2l-7 4l-6 3l-7 5l-7 4l-4 4l-13 7l-11 11l-11 8l-11 10l-10 10l-10 13l-9 10l-8 13l-16 -13l-7 -46l-284 -221l-61 95l284 223v0zM643 262l12 -2l12 -3l10 1
h12l10 1h12l10 1l10 4l11 3l10 4l10 3l11 6l8 4l11 6l8 7l8 7l9 6l8 7l9 9l8 6l7 10l6 10l6 9l7 10l6 10l4 10l5 13l4 10l4 13l4 10l2 14l3 13l1 10l2 13v14v12l-1 14l-1 10v11l-3 12l-4 11l-3 12l-3 12l-3 11l-5 12l-6 10l-6 9l-5 12l-6 9l-6 7l-9 10l-5 9l-9 7l-9 8l-8 7
l-9 7l-9 7l-9 5l-11 5l-9 4l-12 5l-9 5l-12 2l-11 3l-10 2l-12 2l-12 -1h-10h-12l-10 -1l-10 -1l-10 -4l-13 -3l-10 -3l-8 -4l-11 -3l-10 -7l-9 -6l-7 -4l-11 -6l-9 -9l-8 -7l-6 -7l-9 -9l-6 -10l-7 -10l-6 -9l-7 -10l-6 -10l-4 -10l-6 -10l-5 -12l-2 -11l-4 -13l-2 -13
l-2 -11l-2 -12l-2 -14l1 -11l-2 -13v-12l3 -14l1 -11l3 -11l3 -12l3 -12l3 -11l3 -12l6 -9l3 -12l6 -9l6 -10l8 -10l6 -9l5 -9l9 -7l8 -10l6 -7l9 -7l11 -8l9 -7l9 -5l9 -4l11 -5l9 -5l12 -5l12 -2l9 -2v0z" />
    <glyph glyph-name="z" unicode="z" horiz-adv-x="981" 
d="M70 868h578v-867h-578v867zM151 779v-688h415v688h-415zM566 634v-398h82v398h-82zM935 432l-209 -209v167h-418v84h418v166z" />
    <glyph glyph-name="q" unicode="q" horiz-adv-x="1061" 
d="M526 335q9 48 14.5 98.5t24.5 92.5h192h193l17 -11l44 -180h-485zM764 782q48 0 83.5 -34.5t35.5 -83.5t-35.5 -83.5t-83.5 -34.5q-49 0 -83.5 34.5t-34.5 83.5t34.5 83.5t83.5 34.5zM617 373v-38h14v38h-14zM916 373v-38h14v38h-14zM70 1q12 60 18.5 123t30.5 115h240
h240l22 -14l54 -224h-605zM368 559q60 0 103.5 -43t43.5 -104q0 -62 -43.5 -105t-103.5 -43q-62 0 -105 43t-43 105q0 61 43 104t105 43zM184 48v-47h18v47h-18zM557 48v-47h18v47h-18z" />
    <glyph glyph-name="v" unicode="v" horiz-adv-x="1061" 
d="M541 462v0h3h5h8h4l8 -4l9 -4l8 -5l13 -4l4 -4l9 -8l8 -9l4 -8l4 -8l5 -9l4 -8l4 -9v-8v-4v-4v-5v-8v-4v-5v-4l-4 -13l-4 -8l-5 -8l-4 -9l-4 -8l-8 -8l-9 -5l-4 -8l-13 -4l-8 -4l-9 -5h-8l-4 -4h-8h-5h-3h-4h-9h-4l-4 4h-9l-12 5l-9 4l-8 4l-8 8l-9 5l-4 8l-9 8l-4 9
l-4 8l-4 8v13v4l-5 5v4v8v5v4l5 4v8v9l4 8l4 9l4 8l9 8l4 9l9 8l8 4l8 4l9 5l12 4l9 4h4h4h9h4zM931 672v0h8h9l8 -5l4 -3h9l4 -5l8 -4l5 -8l4 -5l4 -4l4 -8l4 -5l5 -8v-8v-9l4 -8v-466l-4 -8v-9v-8l-5 -4l-4 -9l-4 -4l-4 -9l-4 -4l-5 -4l-8 -4l-4 -4l-9 -4l-4 -5h-8l-9 -4
h-8h-781h-9l-8 4h-9l-8 5l-4 4l-8 4l-5 4l-8 4l-4 4l-5 9l-3 4l-5 9v4l-4 8v9v8v466v8v9l4 8v8l5 5l3 8l5 4l4 5l8 8l5 4l8 5h4l8 3l9 5h8h9h391v8v9v8l3 9v8l5 4l4 8l4 5l4 8l8 4l5 4l8 5l4 4h9l8 4h5h8h210h4h8l9 -4h8l5 -4l8 -5l4 -4l8 -4l5 -8l4 -5l4 -8l4 -4v-8l5 -9
v-8v-9v-8h29zM213 462v0h8h5l8 4h4l8 5l5 4l4 4l4 4l4 4l5 4l4 5v4l4 8v5v8v4v8v5v8l-4 4v4l-4 9l-5 4l-4 4l-4 4l-4 4h-5l-8 5h-4l-8 4h-5h-8h-4h-9l-4 -4h-4l-9 -5h-4l-4 -4l-4 -4l-4 -4l-4 -4l-5 -9v-4l-4 -4v-8v-5l-4 -8l4 -4v-8v-5l4 -8v-4l5 -5l4 -4l4 -4l4 -4l4 -4
l4 -4l9 -5h4l4 -4h9h4zM541 130v0h12h8l13 4h12l9 4l13 5h12l8 4l9 8l12 5l9 4l8 4l9 9l8 8l8 4l9 8l8 9l9 8l4 8l9 9l3 8l9 13l4 8l4 9l5 12l4 9l4 12v13l4 9v12v13v12v9v12v13l-4 13v8l-4 13l-4 8l-5 12l-4 9l-4 13l-9 8l-3 8l-9 9l-4 8l-9 9l-8 8l-9 9l-8 8l-8 4l-9 8
l-8 4l-9 9l-12 4l-9 4l-8 4l-12 4h-13l-9 5h-12l-13 4h-8h-12h-13h-13l-8 -4h-13l-12 -5h-8l-13 -4l-9 -4l-12 -4l-8 -4l-9 -9l-13 -4l-8 -8l-9 -4l-8 -8l-8 -9l-9 -8l-4 -9l-8 -8l-4 -9l-9 -8l-4 -8l-4 -13l-5 -9l-4 -12l-4 -8l-4 -13l-4 -8v-13v-13l-4 -12v-9v-12l4 -13
v-12v-9l4 -13l4 -12l4 -9l4 -12l5 -9l4 -8l4 -13l9 -8l4 -9l8 -8l4 -8l9 -9l8 -8l8 -4l9 -8l8 -9l13 -4l9 -4l8 -5l12 -8l9 -4h13l8 -5l12 -4h13l8 -4h13h13zM433 830l80 -90zM1011 830l-80 -90zM586 868l19 -73zM857 868l-18 -73zM715 868v-95v95z" />
  </font>
</defs>
</svg>
